<?xml version="1.0" standalone="no"?>
<!DOCTYPE svg PUBLIC "-//W3C//DTD SVG 20010904//EN"
 "http://www.w3.org/TR/2001/REC-SVG-20010904/DTD/svg10.dtd">
<svg version="1.0" xmlns="http://www.w3.org/2000/svg"
 width="500.000000pt" height="500.000000pt" viewBox="0 0 500.000000 500.000000"
 preserveAspectRatio="xMidYMid meet">

<g transform="translate(0.000000,500.000000) scale(0.100000,-0.100000)"
fill="#000000" stroke="none">
<path d="M1095 3070 c-78 -18 -126 -62 -176 -161 -44 -89 -62 -178 -56 -287 4
-81 9 -102 38 -160 24 -46 47 -75 76 -95 79 -56 193 -45 260 26 42 43 50 77
25 107 l-20 25 -75 -19 c-43 -11 -86 -16 -101 -12 -38 9 -56 58 -56 153 0 130
38 234 88 241 25 4 42 -29 42 -82 0 -42 26 -66 73 -66 50 0 71 40 69 130 -4
138 -84 225 -187 200z"/>
<path d="M2583 3055 c-70 -19 -129 -50 -138 -72 -13 -29 -18 -431 -7 -517 6
-43 16 -82 23 -87 54 -33 205 -14 277 35 60 40 85 84 85 149 1 66 -23 113 -69
134 l-34 17 39 40 c22 23 47 58 56 78 19 47 19 120 0 158 -33 64 -134 93 -232
65z m101 -170 c13 -36 -49 -125 -87 -125 -18 0 -19 6 -15 61 3 38 10 64 19 70
23 14 76 11 83 -6z m-6 -283 c4 -27 -47 -82 -77 -82 -18 0 -21 6 -21 45 0 50
17 66 65 62 23 -1 31 -8 33 -25z"/>
<path d="M3798 3043 c-43 -49 -53 -130 -57 -458 -1 -136 1 -165 16 -195 46
-89 113 -20 113 116 0 44 4 54 25 68 13 9 28 16 32 16 4 -1 23 -34 42 -75 38
-84 93 -155 121 -155 57 0 51 76 -18 215 l-50 99 38 46 c72 86 91 131 74 174
-14 37 -55 17 -137 -65 -44 -44 -85 -81 -91 -82 -6 -1 -10 45 -11 118 -2 140
-18 195 -58 195 -13 0 -31 -8 -39 -17z"/>
<path d="M1392 3044 c-18 -8 -33 -40 -26 -58 8 -20 63 -21 88 -3 11 8 17 23
14 38 -2 19 -9 24 -33 26 -16 1 -36 -1 -43 -3z"/>
<path d="M2134 2911 c-83 -38 -144 -157 -144 -280 0 -152 109 -278 222 -257
81 15 168 97 168 158 0 47 -30 52 -96 17 -68 -35 -119 -36 -141 -2 -14 21 -13
22 14 28 15 3 52 18 82 32 136 68 153 247 28 303 -53 24 -81 25 -133 1z m94
-113 c32 -32 6 -76 -57 -97 -43 -14 -41 -14 -41 5 0 29 33 86 54 94 29 12 30
12 44 -2z"/>
<path d="M1573 2883 c-16 -24 -18 -48 -15 -233 3 -256 16 -303 80 -279 38 14
55 72 57 194 2 90 6 118 24 153 27 53 55 56 70 9 8 -24 8 -63 -2 -150 -14
-117 -10 -198 11 -219 6 -6 22 -8 37 -4 52 13 105 185 105 343 0 95 -15 147
-53 179 -47 40 -145 29 -186 -20 -12 -14 -16 -12 -35 17 -29 44 -68 48 -93 10z"/>
<path d="M3028 2901 c-52 -17 -87 -52 -120 -119 -30 -61 -33 -74 -33 -162 0
-77 5 -104 23 -145 40 -86 90 -125 162 -125 98 0 166 82 189 226 31 200 -83
368 -221 325z m66 -150 c26 -29 40 -129 26 -194 -18 -87 -59 -103 -92 -37 -39
77 -9 248 43 250 3 0 13 -8 23 -19z"/>
<path d="M3435 2891 c-86 -39 -135 -139 -135 -274 1 -90 14 -138 54 -196 38
-54 81 -75 143 -69 69 7 106 36 145 116 31 63 33 73 33 172 0 94 -3 110 -27
155 -33 64 -66 94 -115 106 -51 11 -52 11 -98 -10z m78 -136 c27 -26 40 -85
35 -159 -5 -81 -22 -116 -56 -116 -62 0 -81 210 -25 273 20 21 27 21 46 2z"/>
<path d="M1385 2883 c-9 -9 -21 -28 -27 -42 -18 -48 -28 -212 -19 -311 13
-138 37 -178 87 -146 40 27 49 77 49 271 0 154 -3 185 -18 213 -19 35 -46 41
-72 15z"/>
<path d="M826 1973 c-3 -3 -6 -42 -6 -85 l0 -78 45 0 c33 0 45 4 45 15 0 10
-10 15 -30 15 l-30 0 0 64 c0 60 -8 84 -24 69z"/>
<path d="M1094 1956 c-21 -18 -28 -32 -28 -61 0 -29 7 -43 28 -61 47 -41 107
-22 122 39 6 26 4 27 -30 27 -20 0 -36 -4 -36 -10 0 -5 7 -10 16 -10 25 0 12
-35 -14 -38 -45 -7 -67 41 -42 89 12 21 49 26 67 8 7 -7 12 -6 16 6 5 11 -1
19 -19 25 -38 15 -50 12 -80 -14z"/>
<path d="M1473 1972 c-28 -4 -30 -22 -3 -22 18 0 20 -7 20 -70 0 -56 3 -70 15
-70 12 0 15 14 15 70 0 63 2 70 20 70 11 0 20 6 20 13 0 13 -34 16 -87 9z"/>
<path d="M1648 1969 c-28 -16 -22 -55 12 -79 43 -30 40 -54 -4 -46 -39 8 -56
-8 -27 -23 29 -16 67 -13 85 5 26 25 19 53 -19 75 -42 25 -48 54 -10 47 29 -6
45 10 24 23 -18 11 -40 11 -61 -2z"/>
<path d="M1919 1965 c-35 -19 -53 -63 -40 -97 18 -47 81 -73 120 -49 21 13 5
29 -24 23 -32 -6 -65 22 -65 54 0 29 41 58 69 49 23 -7 39 14 20 26 -20 13
-50 10 -80 -6z"/>
<path d="M2123 1968 c-12 -14 -63 -136 -63 -150 0 -17 29 -7 35 12 5 15 15 20
40 20 25 0 35 -5 40 -20 6 -19 35 -29 35 -12 0 16 -52 137 -64 150 -10 11 -15
11 -23 0z m27 -92 c-5 -5 -16 -6 -24 -3 -13 5 -14 11 -4 32 l12 26 12 -23 c7
-13 9 -27 4 -32z"/>
<path d="M2284 1972 c-6 -4 -14 -42 -18 -84 -6 -64 -4 -78 7 -78 9 0 17 19 23
53 l10 52 18 -52 c10 -29 21 -53 26 -53 5 0 16 24 26 53 l18 52 9 -52 c5 -34
13 -53 22 -53 11 0 13 15 8 73 -9 110 -29 122 -65 38 l-20 -46 -17 42 c-19 50
-32 65 -47 55z"/>
<path d="M2500 1893 l0 -83 45 0 c33 0 45 4 45 15 0 10 -10 15 -30 15 -23 0
-30 4 -30 20 0 16 7 20 30 20 20 0 30 5 30 15 0 10 -10 15 -30 15 -23 0 -30 4
-30 20 0 16 7 20 30 20 17 0 30 5 30 10 0 11 -6 12 -57 14 l-33 1 0 -82z"/>
<path d="M2673 1973 c-9 -3 -13 -29 -13 -84 0 -64 3 -79 15 -79 11 0 15 11 15
37 l0 38 27 -38 c14 -20 35 -37 45 -37 21 0 18 11 -14 46 -17 19 -17 22 -3 34
16 14 21 65 6 75 -13 7 -63 13 -78 8z m52 -48 c0 -11 -8 -21 -17 -23 -14 -3
-18 3 -18 23 0 20 4 26 18 23 9 -2 17 -12 17 -23z"/>
<path d="M2900 1973 c-9 -2 -21 -16 -27 -31 -6 -15 -20 -51 -32 -79 -20 -51
-20 -53 -2 -53 10 0 21 9 24 20 4 15 14 20 40 20 27 0 37 -5 42 -20 5 -17 35
-30 35 -15 0 5 -61 160 -63 161 -1 0 -9 -1 -17 -3z m19 -90 c1 -7 -8 -13 -19
-13 -23 0 -23 0 -9 37 10 26 12 27 19 8 5 -11 9 -26 9 -32z"/>
<path d="M3415 1968 c-68 -39 -57 -135 19 -154 34 -8 61 -1 61 16 0 10 -8 14
-23 12 -31 -5 -72 23 -72 48 0 30 38 63 66 57 28 -5 43 11 23 24 -19 12 -50
11 -74 -3z"/>
<path d="M3566 1973 c-3 -3 -6 -42 -6 -85 0 -63 3 -78 15 -78 10 0 15 11 15
35 0 19 3 35 8 35 4 0 21 -16 37 -36 20 -24 37 -35 50 -33 17 4 15 9 -19 47
l-39 43 33 34 c31 32 32 35 12 35 -12 0 -31 -13 -44 -30 -28 -38 -38 -38 -38
-1 0 30 -12 46 -24 34z"/>
<path d="M3963 1973 c-29 -2 -53 -8 -53 -14 0 -5 9 -9 20 -9 18 0 20 -7 20
-70 0 -56 3 -70 15 -70 12 0 15 14 15 70 0 63 2 70 20 70 11 0 20 7 20 15 0 8
-1 14 -2 13 -2 -1 -27 -3 -55 -5z"/>
<path d="M4101 1961 c-12 -12 -21 -25 -21 -30 0 -12 26 -38 51 -51 10 -6 19
-18 19 -27 0 -12 -7 -14 -35 -10 -40 6 -55 -7 -26 -22 29 -16 56 -13 81 7 30
24 20 54 -26 81 -38 23 -37 46 2 38 14 -2 27 0 30 5 8 12 4 15 -28 23 -19 5
-32 1 -47 -14z"/>
<path d="M970 1890 c0 -64 3 -80 15 -80 12 0 15 16 15 80 0 64 -3 80 -15 80
-12 0 -15 -16 -15 -80z"/>
<path d="M1280 1890 c0 -64 3 -80 15 -80 10 0 15 11 15 35 0 32 2 35 30 35 28
0 30 -3 30 -35 0 -24 5 -35 15 -35 12 0 15 16 15 80 0 64 -3 80 -15 80 -10 0
-15 -10 -15 -30 0 -27 -3 -30 -30 -30 -27 0 -30 3 -30 30 0 20 -5 30 -15 30
-12 0 -15 -16 -15 -80z"/>
<path d="M3110 1960 c0 -5 9 -10 20 -10 18 0 20 -7 20 -70 0 -56 3 -70 15 -70
12 0 15 14 15 70 0 63 2 70 20 70 11 0 20 5 20 10 0 6 -25 10 -55 10 -30 0
-55 -4 -55 -10z"/>
<path d="M3280 1890 c0 -64 3 -80 15 -80 12 0 15 16 15 80 0 64 -3 80 -15 80
-12 0 -15 -16 -15 -80z"/>
<path d="M3760 1890 l0 -80 45 0 c33 0 45 4 45 15 0 10 -10 15 -30 15 -23 0
-30 4 -30 20 0 16 7 20 30 20 20 0 30 5 30 15 0 10 -10 15 -30 15 -23 0 -30 4
-30 20 0 16 7 20 30 20 17 0 30 5 30 10 0 6 -20 10 -45 10 l-45 0 0 -80z"/>
</g>
</svg>
